<?xml version="1.0" encoding="utf-8"?>
<!-- Generator: Adobe Illustrator 17.0.0, SVG Export Plug-In . SVG Version: 6.00 Build 0)  -->
<!DOCTYPE svg PUBLIC "-//W3C//DTD SVG 1.1//EN" "http://www.w3.org/Graphics/SVG/1.1/DTD/svg11.dtd">
<svg version="1.1" id="Layer_1" xmlns:sketch="http://www.bohemiancoding.com/sketch/ns"
	 xmlns="http://www.w3.org/2000/svg" xmlns:xlink="http://www.w3.org/1999/xlink" x="0px" y="0px" width="22px" height="22px"
	 viewBox="0 0 22 22" enable-background="new 0 0 22 22" xml:space="preserve">
<title></title>
<g id="miu">
	<g id="circle_arrow-down_download_outline_stroke">
		<g>
			<path id="path-1" fill="#FFFFFF" d="M0,11C0,4.925,4.925,0,11,0s11,4.925,11,11s-4.925,11-11,11S0,17.075,0,11L0,11z M21,11
				c0-5.523-4.477-10-10-10S1,5.477,1,11s4.477,10,10,10S21,16.523,21,11L21,11z M11,16.5l4-3v-1l-3.502,2.75l0-9.75H10.5v9.75
				L7,12.5v1L11,16.5L11,16.5z"/>
		</g>
		<g>
			<path id="path-1_1_" fill="#FFFFFF" d="M0,11C0,4.925,4.925,0,11,0s11,4.925,11,11s-4.925,11-11,11S0,17.075,0,11L0,11z M21,11
				c0-5.523-4.477-10-10-10S1,5.477,1,11s4.477,10,10,10S21,16.523,21,11L21,11z M11,16.5l4-3v-1l-3.502,2.75l0-9.75H10.5v9.75
				L7,12.5v1L11,16.5L11,16.5z"/>
		</g>
	</g>
</g>
</svg>
