<?xml version="1.0" encoding="utf-8"?>
<!-- Generator: Adobe Illustrator 18.1.1, SVG Export Plug-In . SVG Version: 6.00 Build 0)  -->
<svg version="1.1" id="Layer_1" xmlns="http://www.w3.org/2000/svg" xmlns:xlink="http://www.w3.org/1999/xlink" x="0px" y="0px"
	 viewBox="0 0 180 72" enable-background="new 0 0 180 72" xml:space="preserve">
<path fill="#6E6F72" d="M44.1,37.8c0-1.9,0.5-3.9,1.2-5.5s1.8-3.2,3-4.5c1.2-1.2,2.7-2.2,4.2-3s3.2-1.1,4.7-1.1
	c1.6,0,3.3,0.3,4.8,1.1s3,1.6,4.2,3c1.2,1.2,2.2,2.7,3,4.5c0.8,1.7,1.1,3.6,1.1,5.5c0,1.8-0.3,3.5-1.1,5.2c-0.8,1.7-1.7,3.2-2.9,4.5
	c-1.2,1.4-2.5,2.4-4.2,3.1s-3.3,1.2-5.1,1.2c-2,0-3.6-0.4-5.2-1.2s-3-1.8-4.2-3.1c-1.2-1.4-2.1-2.9-2.7-4.5
	C44.4,41.4,44.1,39.5,44.1,37.8z M48.3,37.8c0,2.2,0.1,4.2,0.4,6c0.3,1.7,0.8,3.2,1.5,4.2c0.8,1.2,1.6,1.9,2.7,2.5
	c1.1,0.6,2.6,0.9,4.1,0.9c1.6,0,3-0.3,4.1-0.9c1-0.6,2.1-1.4,2.7-2.5c0.8-1.2,1.2-2.6,1.5-4.2c0.3-1.7,0.4-3.6,0.4-6
	c0-1.8-0.1-3.4-0.3-5.1c-0.3-1.7-0.6-3.2-1.3-4.4c-0.6-1.2-1.5-2.2-2.7-3c-1.2-0.8-2.7-1.2-4.5-1.2c-1.8,0-3.3,0.4-4.5,1.2
	c-1.2,0.8-2.1,1.8-2.7,3c-0.6,1.2-1,2.7-1.4,4.4C48.4,34.3,48.3,36,48.3,37.8z"/>
<path fill="#6E6F72" d="M84.1,43h0.5c0.3,1.4,0.6,2.5,1,3.5c0.5,0.9,0.9,1.6,1.5,2.2c0.6,0.6,1.1,1,1.7,1.4c0.6,0.3,1.2,0.6,1.8,0.8
	c0.6,0.1,1.2,0.3,1.6,0.3c0.6,0,1.1,0,1.5,0c1.4,0,2.4-0.1,3.3-0.6c0.9-0.4,1.5-0.9,2.1-1.5c0.5-0.6,0.9-1.4,1.1-1.9
	c0.1-0.8,0.3-1.4,0.3-2c0-0.9-0.1-1.7-0.4-2.2s-0.8-1.2-1.2-1.7c-0.4-0.4-1-0.8-1.6-1c-0.6-0.3-1.2-0.5-1.6-0.6l-4.4-1.4
	c-2.1-0.6-3.6-1.5-4.6-2.5c-1.1-1.1-1.5-2.4-1.5-4.2c0-1.2,0.1-2.2,0.6-3.2c0.4-0.9,0.9-1.8,1.7-2.6s1.6-1.2,2.7-1.6
	c1.1-0.4,2.1-0.6,3.3-0.6c0.9,0,1.6,0.2,2.2,0.3c0.6,0.2,1,0.3,1.5,0.4c0.4,0.2,0.8,0.3,1.2,0.4c0.3,0.2,0.8,0.3,1.1,0.3
	c0.3,0,0.6,0,0.6-0.1c0.2-0.2,0.3-0.3,0.5-0.6h0.6v6.9h-0.5c-0.1-0.9-0.4-1.8-0.8-2.7c-0.3-0.9-0.9-1.7-1.3-2.2
	c-0.6-0.6-1.3-1.2-2.1-1.5c-0.8-0.4-1.8-0.6-2.9-0.6c-0.6,0-1.2,0.2-1.9,0.3c-0.8,0.2-1.4,0.4-2.1,0.9c-0.6,0.4-1.2,0.9-1.5,1.6
	c-0.4,0.6-0.6,1.5-0.6,2.6c0,0.8,0.1,1.5,0.4,2.1c0.3,0.6,0.8,1,1.2,1.5c0.5,0.4,1.1,0.8,1.8,1c0.6,0.3,1.3,0.5,1.9,0.8l4.5,1.5
	c0.5,0.2,1,0.3,1.8,0.6s1.5,0.6,2.1,1.2c0.8,0.5,1.4,1.2,1.8,2c0.4,0.9,0.8,1.9,0.8,3.1s-0.2,2.2-0.6,3.5c-0.5,1-1,1.9-2,2.9
	c-0.9,0.8-1.8,1.5-3,1.9c-1.2,0.5-2.6,0.8-4.1,0.8c-0.6,0-1,0-1.3,0c-0.4,0-0.8,0-1.2-0.1c-0.3,0-0.8-0.1-1.1-0.1s-0.8-0.1-1.2-0.3
	c-0.5-0.1-1.1-0.3-1.7-0.6c-0.6-0.1-1.1-0.3-1.5-0.3s-0.6,0.1-0.8,0.3c-0.2,0.1-0.3,0.3-0.3,0.6h-0.6L84.1,43L84.1,43z"/>
<path fill="#6E6F72" d="M122.7,50.7h4.2V24.9h-2.2c-0.5,0-1,0-1.6,0.2c-0.6,0.1-1.2,0.3-2,0.8c-0.6,0.4-1.2,1.1-1.8,1.9
	c-0.6,0.9-1.1,2.1-1.5,3.6h-0.5v-6.9h23v6.9h-0.5c-0.4-1.5-0.9-2.7-1.5-3.6c-0.6-0.9-1.2-1.5-1.8-1.9c-0.6-0.4-1.4-0.6-2-0.8
	c-0.6-0.2-1.2-0.2-1.6-0.2h-2.2v25.8h4.2v0.6h-12.1L122.7,50.7L122.7,50.7z"/>
<path fill="#6E6F72" d="M164.1,28.6l-8.4,22.1h4.2v0.6h-8.1v-0.6h3.3l10.2-27h0.9l10.3,27h3.3v0.6h-11.7v-0.6h4.2L164.1,28.6z"/>
<g>
	<path fill="#6E6F72" d="M16.3,50.8c-0.9,0.3-1.9,0.5-3.1,0.5c-1.6,0-3-0.3-4.2-0.9c-1-0.6-1.9-1.4-2.7-2.6
		c-0.8-1.2-1.2-2.5-1.5-4.2c-0.3-1.7-0.4-3.6-0.4-6c0-1.8,0.1-3.5,0.3-5.1c0.3-1.6,0.6-3.1,1.3-4.3c0.6-1.3,1.5-2.2,2.7-3
		s2.7-1.2,4.5-1.2s3.3,0.4,4.5,1.2s2.1,1.8,2.7,3c0.6,1.4,1,2.7,1.3,4.3c0.3,1.7,0.3,3.3,0.3,5.1c0,2.2-0.2,4.2-0.5,6
		c-0.3,1.3-0.6,2.5-1.2,3.6c0.5,0.1,0.9,0.4,1.2,0.8l0.1,0.1c0.3-0.3,0.5-0.5,0.8-0.8c1.2-1.4,2.1-2.9,2.9-4.5
		c0.8-1.7,1.1-3.5,1.1-5.2c0-2-0.3-3.9-1.1-5.6c-0.8-1.6-1.8-3.1-3-4.5c-1.2-1.2-2.7-2.2-4.2-3c-1.7-0.8-3.1-1.1-4.8-1.1
		s-3.1,0.3-4.8,1.1c-1.5,0.8-3,1.8-4.2,3c-1.2,1.4-2.2,2.7-3,4.5C0.5,33.9,0,35.7,0,37.6c0,1.5,0.3,3,0.8,4.5s1.2,2.8,1.9,4
		c0.9,1.2,1.9,2.2,3,3.1c1.2,0.9,2.6,1.5,3.9,2c0.6,0.1,2.1,0.4,2.1,0.4c0.4,0.1,0.9,0.1,1.5,0.1c1.2,0,2.4-0.1,3.6-0.6
		C16.7,51.1,16.5,51,16.3,50.8z"/>
</g>
<path fill="#6E6F72" d="M13.3,44.7c0.4,0.1,0.8,0.4,1.1,0.6c0.3,0.1,0.8,0.3,1,0.4c0.5,0.1,0.9,0.3,1.4,0.3c0.4,0.1,1,0.1,1.8,0.3
	c0.8,0.1,1.3,0.3,2.1,0.8c0.6,0.5,1.2,0.9,1.7,1.5c0.3,0.5,0.6,0.8,0.9,0.9c0.3,0.3,0.6,0.5,0.9,0.6c0.3,0.1,0.8,0.3,1.1,0.3
	c0.4,0,0.9,0.1,1.6,0.1v0.6c-2.2,0-3.9-0.1-5.2-0.3c-1.3-0.1-2.4-0.4-3.1-0.8c-0.8-0.3-1.5-0.8-2-1.4c-0.4-0.6-1-1.2-1.6-2.1
	c-0.6-0.8-1.2-1.4-1.8-1.8c-0.6-0.5-1.2-0.8-1.8-0.9c0,0,0.2-0.2,1.1,0.2C12.8,44.4,13.3,44.7,13.3,44.7z"/>
<g>
	<path fill="#A0CEE9" d="M45.6,18.7h3V1.9h-3V1.6h6l5,13.2l0,0l5.1-13.2h6v0.3h-3v16.8h3V19h-8.7v-0.3h3V2.1l0,0l-6.4,17.1l-6.4-17
		l0,0v16.5h3V19h-6.3v-0.3H45.6z"/>
	<path fill="#A0CEE9" d="M69.9,18.7h3V1.9h-3V1.6h8.7v0.3h-3v16.8h3V19h-8.7V18.7z"/>
	<path fill="#A0CEE9" d="M80.1,18.7h2.4L89.7,1h0.6l7.3,17.7h2.4V19h-8.2v-0.3h3l-2.8-6.9h-6.3l-2.9,6.9h3V19h-5.8L80.1,18.7
		L80.1,18.7z M88.8,4.3l-3,7.2h5.8L88.8,4.3z"/>
	<path fill="#A0CEE9" d="M101.4,18.7h3V1.9h-3V1.6h6l5,13.2l0,0l5.1-13.2h6v0.3h-3v16.8h3V19h-8.7v-0.3h3V2.1l0,0l-6.5,17.1l-6.4-17
		l0,0v16.5h3V19h-6.3L101.4,18.7L101.4,18.7z"/>
	<path fill="#A0CEE9" d="M125.7,18.7h3V1.9h-3V1.6h8.7v0.3h-3v16.8h3V19h-8.7V18.7z"/>
</g>
<g>
	<path fill="#6E6F72" d="M55.2,55.9v5.2h-0.7v-5.2H55.2z"/>
	<path fill="#6E6F72" d="M56.4,61.1v-5.2h0.7l1.7,2.6c0.4,0.6,0.7,1.2,0.9,1.7l0,0c-0.1-0.7-0.1-1.3-0.1-2.2v-2.2h0.6v5.2h-0.7
		L58,58.4c-0.4-0.6-0.7-1.2-1-1.7l0,0c0,0.7,0.1,1.3,0.1,2.2v2.2H56.4z"/>
	<path fill="#6E6F72" d="M64,59.4l-0.5,1.6h-0.7l1.8-5.2h0.8l1.8,5.2h-0.7l-0.6-1.6H64z M65.7,58.9l-0.5-1.5c-0.1-0.3-0.2-0.7-0.3-1
		h0c-0.1,0.3-0.2,0.6-0.3,0.9l-0.5,1.5H65.7z"/>
	<path fill="#6E6F72" d="M67.8,60.3c0.3,0.2,0.7,0.3,1.2,0.3c0.7,0,1.1-0.4,1.1-0.9c0-0.5-0.3-0.8-1-1c-0.9-0.3-1.4-0.7-1.4-1.5
		c0-0.8,0.7-1.4,1.7-1.4c0.5,0,0.9,0.1,1.2,0.3l-0.2,0.6c-0.2-0.1-0.5-0.2-1-0.2c-0.7,0-1,0.4-1,0.8c0,0.5,0.3,0.7,1,1
		c0.9,0.3,1.3,0.8,1.3,1.5c0,0.8-0.6,1.5-1.8,1.5c-0.5,0-1.1-0.1-1.3-0.3L67.8,60.3z"/>
	<path fill="#6E6F72" d="M71.7,60.3c0.3,0.2,0.7,0.3,1.2,0.3c0.7,0,1.1-0.4,1.1-0.9c0-0.5-0.3-0.8-1-1c-0.9-0.3-1.4-0.7-1.4-1.5
		c0-0.8,0.7-1.4,1.7-1.4c0.5,0,0.9,0.1,1.2,0.3l-0.2,0.6c-0.2-0.1-0.5-0.2-1-0.2c-0.7,0-1,0.4-1,0.8c0,0.5,0.3,0.7,1,1
		c0.9,0.3,1.3,0.8,1.3,1.5c0,0.8-0.6,1.5-1.8,1.5c-0.5,0-1.1-0.1-1.3-0.3L71.7,60.3z"/>
	<path fill="#6E6F72" d="M80.1,58.4c0,1.8-1.1,2.8-2.4,2.8c-1.4,0-2.4-1.1-2.4-2.7c0-1.7,1-2.7,2.4-2.7
		C79.2,55.8,80.1,56.9,80.1,58.4z M76,58.5c0,1.1,0.6,2.1,1.7,2.1c1.1,0,1.7-1,1.7-2.2c0-1-0.5-2.1-1.7-2.1
		C76.6,56.3,76,57.4,76,58.5z"/>
	<path fill="#6E6F72" d="M84.6,60.9c-0.2,0.1-0.7,0.2-1.4,0.2c-1.5,0-2.6-0.9-2.6-2.6c0-1.6,1.1-2.7,2.7-2.7c0.7,0,1.1,0.1,1.2,0.2
		l-0.2,0.6c-0.3-0.1-0.6-0.2-1.1-0.2c-1.2,0-2,0.8-2,2.2c0,1.3,0.7,2.1,2,2.1c0.4,0,0.8-0.1,1.1-0.2L84.6,60.9z"/>
	<path fill="#6E6F72" d="M86.1,55.9v5.2h-0.7v-5.2H86.1z"/>
	<path fill="#6E6F72" d="M88.2,59.4l-0.5,1.6h-0.7l1.8-5.2h0.8l1.8,5.2h-0.7L90,59.4H88.2z M89.9,58.9l-0.5-1.5
		c-0.1-0.3-0.2-0.7-0.3-1h0c-0.1,0.3-0.2,0.6-0.3,0.9l-0.5,1.5H89.9z"/>
	<path fill="#6E6F72" d="M92.5,56.4h-1.6v-0.6h3.9v0.6h-1.6v4.7h-0.7V56.4z"/>
	<path fill="#6E6F72" d="M96,55.9v5.2h-0.7v-5.2H96z"/>
	<path fill="#6E6F72" d="M101.7,58.4c0,1.8-1.1,2.8-2.4,2.8c-1.4,0-2.4-1.1-2.4-2.7c0-1.7,1-2.7,2.4-2.7
		C100.8,55.8,101.7,56.9,101.7,58.4z M97.6,58.5c0,1.1,0.6,2.1,1.7,2.1c1.1,0,1.7-1,1.7-2.2c0-1-0.5-2.1-1.7-2.1
		C98.2,56.3,97.6,57.4,97.6,58.5z"/>
	<path fill="#6E6F72" d="M102.6,61.1v-5.2h0.7l1.7,2.6c0.4,0.6,0.7,1.2,0.9,1.7l0,0c-0.1-0.7-0.1-1.3-0.1-2.2v-2.2h0.6v5.2h-0.7
		l-1.7-2.7c-0.4-0.6-0.7-1.2-1-1.7l0,0c0,0.7,0.1,1.3,0.1,2.2v2.2H102.6z"/>
	<path fill="#6E6F72" d="M109.9,61.1l-1.3-5.2h0.7l0.6,2.6c0.2,0.7,0.3,1.3,0.4,1.8h0c0.1-0.5,0.2-1.1,0.4-1.8l0.7-2.6h0.7l0.6,2.7
		c0.1,0.6,0.3,1.2,0.4,1.8h0c0.1-0.6,0.3-1.2,0.4-1.8l0.7-2.6h0.7l-1.5,5.2h-0.7l-0.7-2.7c-0.2-0.7-0.3-1.2-0.3-1.7h0
		c-0.1,0.5-0.2,1-0.4,1.7l-0.7,2.7H109.9z"/>
	<path fill="#6E6F72" d="M116.3,55.9v5.2h-0.7v-5.2H116.3z"/>
	<path fill="#6E6F72" d="M118.5,56.4h-1.6v-0.6h3.9v0.6h-1.6v4.7h-0.7V56.4z"/>
	<path fill="#6E6F72" d="M122,55.9V58h2.5v-2.2h0.7v5.2h-0.7v-2.5H122v2.5h-0.7v-5.2H122z"/>
	<path fill="#6E6F72" d="M2,64.2c0.4-0.1,1-0.1,1.6-0.1c0.9,0,1.4,0.2,1.8,0.5c0.3,0.3,0.5,0.7,0.5,1.2c0,0.8-0.5,1.4-1.2,1.6v0
		c0.5,0.2,0.8,0.6,0.9,1.3c0.2,0.9,0.4,1.5,0.5,1.7H5.2c-0.1-0.2-0.2-0.7-0.4-1.5c-0.2-0.9-0.5-1.2-1.3-1.2H2.8v2.7H2V64.2z
		 M2.8,67.1h0.8c0.9,0,1.4-0.5,1.4-1.2c0-0.8-0.6-1.2-1.4-1.2c-0.4,0-0.7,0-0.8,0.1V67.1z"/>
	<path fill="#6E6F72" d="M10.2,67.5H7.8v2.3h2.7v0.7H7v-6.3h3.4v0.7H7.8v2h2.4V67.5z"/>
	<path fill="#6E6F72" d="M12.6,68.4l-0.7,2h-0.8l2.1-6.3h1l2.1,6.3h-0.9l-0.7-2H12.6z M14.6,67.8L14,66c-0.1-0.4-0.2-0.8-0.3-1.1h0
		c-0.1,0.4-0.2,0.8-0.3,1.1l-0.6,1.8H14.6z"/>
	<path fill="#6E6F72" d="M17.3,64.1h0.8v5.6h2.7v0.7h-3.5V64.1z"/>
	<path fill="#6E6F72" d="M26.9,67.5h-2.4v2.3h2.7v0.7h-3.5v-6.3H27v0.7h-2.6v2h2.4V67.5z"/>
	<path fill="#6E6F72" d="M28.1,69.4c0.4,0.2,0.9,0.4,1.5,0.4c0.8,0,1.3-0.4,1.3-1.1c0-0.6-0.3-0.9-1.2-1.3c-1-0.4-1.7-0.9-1.7-1.8
		c0-1,0.8-1.7,2-1.7c0.6,0,1.1,0.1,1.4,0.3L31.3,65c-0.2-0.1-0.6-0.3-1.2-0.3c-0.9,0-1.2,0.5-1.2,0.9c0,0.6,0.4,0.9,1.3,1.2
		c1.1,0.4,1.6,0.9,1.6,1.8c0,1-0.7,1.8-2.2,1.8c-0.6,0-1.3-0.2-1.6-0.4L28.1,69.4z"/>
	<path fill="#6E6F72" d="M34,64.8h-1.9v-0.7h4.7v0.7h-1.9v5.6H34V64.8z"/>
	<path fill="#6E6F72" d="M37.8,68.4l-0.7,2h-0.8l2.1-6.3h1l2.1,6.3h-0.9l-0.7-2H37.8z M39.9,67.8L39.2,66c-0.1-0.4-0.2-0.8-0.3-1.1
		h0c-0.1,0.4-0.2,0.8-0.3,1.1L38,67.8H39.9z"/>
	<path fill="#6E6F72" d="M43,64.8H41v-0.7h4.7v0.7h-1.9v5.6H43V64.8z"/>
	<path fill="#6E6F72" d="M49.7,67.5h-2.4v2.3h2.7v0.7h-3.5v-6.3h3.4v0.7h-2.6v2h2.4V67.5z"/>
	<path fill="#6E6F72" d="M53.8,64.8h-1.9v-0.7h4.7v0.7h-1.9v5.6h-0.8V64.8z"/>
	<path fill="#6E6F72" d="M57.2,64.2c0.4-0.1,1-0.1,1.6-0.1c0.9,0,1.4,0.2,1.8,0.5c0.3,0.3,0.5,0.7,0.5,1.2c0,0.8-0.5,1.4-1.2,1.6v0
		c0.5,0.2,0.8,0.6,0.9,1.3c0.2,0.9,0.4,1.5,0.5,1.7h-0.8c-0.1-0.2-0.2-0.7-0.4-1.5c-0.2-0.9-0.5-1.2-1.3-1.2H58v2.7h-0.8V64.2z
		 M58,67.1h0.8c0.9,0,1.4-0.5,1.4-1.2c0-0.8-0.6-1.2-1.4-1.2c-0.4,0-0.7,0-0.8,0.1V67.1z"/>
	<path fill="#6E6F72" d="M63.3,68.4l-0.7,2h-0.8l2.1-6.3h1l2.1,6.3h-0.9l-0.7-2H63.3z M65.4,67.8L64.7,66c-0.1-0.4-0.2-0.8-0.3-1.1
		h0c-0.1,0.4-0.2,0.8-0.3,1.1l-0.6,1.8H65.4z"/>
	<path fill="#6E6F72" d="M68,70.4v-6.3h0.9l2,3.2c0.5,0.7,0.8,1.4,1.1,2l0,0c-0.1-0.8-0.1-1.6-0.1-2.6v-2.6h0.8v6.3h-0.8l-2-3.2
		c-0.4-0.7-0.9-1.4-1.2-2.1l0,0c0,0.8,0.1,1.5,0.1,2.6v2.7H68z"/>
	<path fill="#6E6F72" d="M74,69.4c0.4,0.2,0.9,0.4,1.5,0.4c0.8,0,1.3-0.4,1.3-1.1c0-0.6-0.3-0.9-1.2-1.3c-1-0.4-1.7-0.9-1.7-1.8
		c0-1,0.8-1.7,2-1.7c0.6,0,1.1,0.1,1.4,0.3L77.1,65c-0.2-0.1-0.6-0.3-1.2-0.3c-0.9,0-1.2,0.5-1.2,0.9c0,0.6,0.4,0.9,1.3,1.2
		c1.1,0.4,1.6,0.9,1.6,1.8c0,1-0.7,1.8-2.2,1.8c-0.6,0-1.3-0.2-1.6-0.4L74,69.4z"/>
	<path fill="#6E6F72" d="M79.7,68.4l-0.7,2h-0.8l2.1-6.3h1l2.1,6.3h-0.9l-0.7-2H79.7z M81.8,67.8L81.2,66c-0.1-0.4-0.2-0.8-0.3-1.1
		h0c-0.1,0.4-0.2,0.8-0.3,1.1l-0.6,1.8H81.8z"/>
	<path fill="#6E6F72" d="M88.7,70.2c-0.3,0.1-0.9,0.3-1.7,0.3c-1.8,0-3.1-1.1-3.1-3.2c0-2,1.3-3.3,3.3-3.3c0.8,0,1.3,0.2,1.5,0.3
		L88.5,65c-0.3-0.2-0.7-0.3-1.3-0.3c-1.5,0-2.5,0.9-2.5,2.6c0,1.5,0.9,2.5,2.4,2.5c0.5,0,1-0.1,1.3-0.3L88.7,70.2z"/>
	<path fill="#6E6F72" d="M91.2,64.8h-1.9v-0.7h4.7v0.7H92v5.6h-0.8V64.8z"/>
	<path fill="#6E6F72" d="M95.4,64.1v6.3h-0.8v-6.3H95.4z"/>
	<path fill="#6E6F72" d="M102.2,67.2c0,2.2-1.3,3.3-2.9,3.3c-1.7,0-2.8-1.3-2.8-3.2c0-2,1.2-3.3,2.9-3.3
		C101.1,64,102.2,65.3,102.2,67.2z M97.3,67.3c0,1.3,0.7,2.5,2,2.5c1.3,0,2-1.2,2-2.6c0-1.3-0.7-2.6-2-2.6
		C98,64.7,97.3,65.9,97.3,67.3z"/>
	<path fill="#6E6F72" d="M103.3,70.4v-6.3h0.9l2,3.2c0.5,0.7,0.8,1.4,1.1,2l0,0c-0.1-0.8-0.1-1.6-0.1-2.6v-2.6h0.8v6.3h-0.8l-2-3.2
		c-0.4-0.7-0.9-1.4-1.2-2.1l0,0c0,0.8,0.1,1.5,0.1,2.6v2.7H103.3z"/>
	<path fill="#6E6F72" d="M109.3,69.4c0.4,0.2,0.9,0.4,1.5,0.4c0.8,0,1.3-0.4,1.3-1.1c0-0.6-0.3-0.9-1.2-1.3c-1-0.4-1.7-0.9-1.7-1.8
		c0-1,0.8-1.7,2-1.7c0.6,0,1.1,0.1,1.4,0.3l-0.2,0.7c-0.2-0.1-0.6-0.3-1.2-0.3c-0.9,0-1.2,0.5-1.2,0.9c0,0.6,0.4,0.9,1.3,1.2
		c1.1,0.4,1.6,0.9,1.6,1.8c0,1-0.7,1.8-2.2,1.8c-0.6,0-1.3-0.2-1.6-0.4L109.3,69.4z"/>
	<path fill="#6E6F72" d="M116.8,64.1v6.3H116v-6.3H116.8z"/>
	<path fill="#6E6F72" d="M118.2,70.4v-6.3h0.9l2,3.2c0.5,0.7,0.8,1.4,1.1,2l0,0c-0.1-0.8-0.1-1.6-0.1-2.6v-2.6h0.8v6.3h-0.8l-2-3.2
		c-0.4-0.7-0.9-1.4-1.2-2.1l0,0c0,0.8,0.1,1.5,0.1,2.6v2.7H118.2z"/>
	<path fill="#6E6F72" d="M125.5,64.8h-1.9v-0.7h4.7v0.7h-1.9v5.6h-0.8V64.8z"/>
	<path fill="#6E6F72" d="M132.2,67.5h-2.4v2.3h2.7v0.7H129v-6.3h3.4v0.7h-2.6v2h2.4V67.5z"/>
	<path fill="#6E6F72" d="M133.6,64.2c0.4-0.1,1-0.1,1.6-0.1c0.9,0,1.4,0.2,1.8,0.5c0.3,0.3,0.5,0.7,0.5,1.2c0,0.8-0.5,1.4-1.2,1.6v0
		c0.5,0.2,0.8,0.6,0.9,1.3c0.2,0.9,0.4,1.5,0.5,1.7h-0.8c-0.1-0.2-0.2-0.7-0.4-1.5c-0.2-0.9-0.5-1.2-1.3-1.2h-0.8v2.7h-0.8V64.2z
		 M134.4,67.1h0.8c0.9,0,1.4-0.5,1.4-1.2c0-0.8-0.6-1.2-1.4-1.2c-0.4,0-0.7,0-0.8,0.1V67.1z"/>
	<path fill="#6E6F72" d="M138.6,70.4v-6.3h0.9l2,3.2c0.5,0.7,0.8,1.4,1.1,2l0,0c-0.1-0.8-0.1-1.6-0.1-2.6v-2.6h0.8v6.3h-0.8l-2-3.2
		c-0.4-0.7-0.9-1.4-1.2-2.1l0,0c0,0.8,0.1,1.5,0.1,2.6v2.7H138.6z"/>
	<path fill="#6E6F72" d="M145.7,68.4l-0.7,2h-0.8l2.1-6.3h1l2.1,6.3h-0.9l-0.7-2H145.7z M147.8,67.8l-0.6-1.8
		c-0.1-0.4-0.2-0.8-0.3-1.1h0c-0.1,0.4-0.2,0.8-0.3,1.1l-0.6,1.8H147.8z"/>
	<path fill="#6E6F72" d="M150.9,64.8H149v-0.7h4.7v0.7h-1.9v5.6h-0.8V64.8z"/>
	<path fill="#6E6F72" d="M155.2,64.1v6.3h-0.8v-6.3H155.2z"/>
	<path fill="#6E6F72" d="M162,67.2c0,2.2-1.3,3.3-2.9,3.3c-1.7,0-2.8-1.3-2.8-3.2c0-2,1.2-3.3,2.9-3.3C160.8,64,162,65.3,162,67.2z
		 M157.1,67.3c0,1.3,0.7,2.5,2,2.5c1.3,0,2-1.2,2-2.6c0-1.3-0.7-2.6-2-2.6C157.7,64.7,157.1,65.9,157.1,67.3z"/>
	<path fill="#6E6F72" d="M163,70.4v-6.3h0.9l2,3.2c0.5,0.7,0.8,1.4,1.1,2l0,0c-0.1-0.8-0.1-1.6-0.1-2.6v-2.6h0.8v6.3h-0.8l-2-3.2
		c-0.4-0.7-0.9-1.4-1.2-2.1l0,0c0,0.8,0.1,1.5,0.1,2.6v2.7H163z"/>
	<path fill="#6E6F72" d="M170.2,68.4l-0.7,2h-0.8l2.1-6.3h1l2.1,6.3h-0.9l-0.7-2H170.2z M172.2,67.8l-0.6-1.8
		c-0.1-0.4-0.2-0.8-0.3-1.1h0c-0.1,0.4-0.2,0.8-0.3,1.1l-0.6,1.8H172.2z"/>
	<path fill="#6E6F72" d="M174.9,64.1h0.8v5.6h2.7v0.7h-3.5V64.1z"/>
</g>
</svg>
